<?xml version="1.0" encoding="UTF-8"?><!DOCTYPE svg PUBLIC "-//W3C//DTD SVG 1.0//EN" "http://www.w3.org/TR/2001/REC-SVG-20010904/DTD/svg10.dtd" []><svg xmlns="http://www.w3.org/2000/svg" xmlns:xlink="http://www.w3.org/1999/xlink" height="500.0" preserveAspectRatio="xMidYMid meet" version="1.0" viewBox="-1.3 0.0 501.3 500.0" width="501.3" zoomAndPan="magnify"><g id="change1_1"><path d="M0,0h500v500c0,0-142.5-18.5-129.5-109.5c0.1-0.9,0.3-1.9,0.4-2.8c3.8-30-3.4-59.2-18.6-83.4 c-25.9-41.1-16.5-95.3,20.9-126.3l41.9-34.8c12.8-10.7,15.8-28.9,7.5-43.4c-0.1-0.1-0.1-0.2-0.2-0.3c-32.3-57.3-130-16-130-16 S124,152,31.5,40.5C-1.3,0.9,0,0,0,0z" fill="#E4AFB0"/></g></svg>